# xmcd CD database file
#
# Track frame offsets:
#	150
#	27946
#	54056
#	78056
#	101203
#	111185
#	127043
#	145749
#	169473
#	190233
#	213994
#
# Disc length: 3077 seconds
#
# Revision: 0
# Processed by: cddbd v1.5.2PL0 Copyright (c) Steve Scherf et al.
# Submitted via: CDex 1.70beta2
#
DISCID=940c030b
DTITLE=Mop Mop - Kiss Of Kali
DYEAR=2008
DGENRE=Jazz
TTITLE0=Living Beat
TTITLE1=Locomotive
TTITLE2=The Lowered Flag
TTITLE3=Jazzdancer
TTITLE4=The Round Table
TTITLE5=Kiss Of Kali
TTITLE6=I Wish I Was In Hell
TTITLE7=Crunk
TTITLE8=Get Into It
TTITLE9=Soul Call
TTITLE10=Last Trip
EXTD=YEAR: 2008
EXTT0=
EXTT1=
EXTT2=
EXTT3=
EXTT4=
EXTT5=
EXTT6=
EXTT7=
EXTT8=
EXTT9=
EXTT10=
PLAYORDER=
